<svg xmlns="http://www.w3.org/2000/svg" xmlns:xlink="http://www.w3.org/1999/xlink" contentStyleType="text/css" data-diagram-type="DESCRIPTION" height="378px" preserveAspectRatio="none" style="width:373px;height:378px;background:#FFFFFF;" version="1.1" viewBox="0 0 373 378" width="373px" zoomAndPan="magnify"><defs/><g><!--entity Client--><g class="entity" data-entity="Client" data-source-line="1" data-uid="ent0002" id="entity_Client"><rect fill="#F1F1F1" height="46.4883" rx="2.5" ry="2.5" style="stroke:#181818;stroke-width:0.5;" width="79.5049" x="59.26" y="7"/><rect fill="#F1F1F1" height="10" style="stroke:#181818;stroke-width:0.5;" width="15" x="118.7649" y="12"/><rect fill="#F1F1F1" height="2" style="stroke:#181818;stroke-width:0.5;" width="4" x="116.7649" y="14"/><rect fill="#F1F1F1" height="2" style="stroke:#181818;stroke-width:0.5;" width="4" x="116.7649" y="18"/><text fill="#000000" font-family="sans-serif" font-size="14" lengthAdjust="spacing" textLength="39.5049" x="74.26" y="40.5352">Client</text></g><!--entity Dispatcher--><g class="entity" data-entity="Dispatcher" data-source-line="2" data-uid="ent0003" id="entity_Dispatcher"><rect fill="#F1F1F1" height="46.4883" rx="2.5" ry="2.5" style="stroke:#181818;stroke-width:0.5;" width="112.8369" x="42.59" y="113.49"/><rect fill="#F1F1F1" height="10" style="stroke:#181818;stroke-width:0.5;" width="15" x="135.4269" y="118.49"/><rect fill="#F1F1F1" height="2" style="stroke:#181818;stroke-width:0.5;" width="4" x="133.4269" y="120.49"/><rect fill="#F1F1F1" height="2" style="stroke:#181818;stroke-width:0.5;" width="4" x="133.4269" y="124.49"/><text fill="#000000" font-family="sans-serif" font-size="14" lengthAdjust="spacing" textLength="72.8369" x="57.59" y="147.0252">Dispatcher</text></g><!--entity Worker--><g class="entity" data-entity="Worker" data-source-line="3" data-uid="ent0004" id="entity_Worker"><rect fill="#F1F1F1" height="46.4883" rx="2.5" ry="2.5" style="stroke:#181818;stroke-width:0.5;" width="88.0156" x="7" y="219.97"/><rect fill="#F1F1F1" height="10" style="stroke:#181818;stroke-width:0.5;" width="15" x="75.0156" y="224.97"/><rect fill="#F1F1F1" height="2" style="stroke:#181818;stroke-width:0.5;" width="4" x="73.0156" y="226.97"/><rect fill="#F1F1F1" height="2" style="stroke:#181818;stroke-width:0.5;" width="4" x="73.0156" y="230.97"/><text fill="#000000" font-family="sans-serif" font-size="14" lengthAdjust="spacing" textLength="48.0156" x="22" y="253.5052">Worker</text></g><!--entity Name Service--><g class="entity" data-entity="Name Service" data-source-line="4" data-uid="ent0005" id="entity_Name Service"><rect fill="#F1F1F1" height="46.4883" rx="2.5" ry="2.5" style="stroke:#181818;stroke-width:0.5;" width="130.7061" x="33.65" y="326.46"/><rect fill="#F1F1F1" height="10" style="stroke:#181818;stroke-width:0.5;" width="15" x="144.3561" y="331.46"/><rect fill="#F1F1F1" height="2" style="stroke:#181818;stroke-width:0.5;" width="4" x="142.3561" y="333.46"/><rect fill="#F1F1F1" height="2" style="stroke:#181818;stroke-width:0.5;" width="4" x="142.3561" y="337.46"/><text fill="#000000" font-family="sans-serif" font-size="14" lengthAdjust="spacing" textLength="90.7061" x="48.65" y="359.9952">Name Service</text></g><!--entity Monitoring Service--><g class="entity" data-entity="Monitoring Service" data-source-line="5" data-uid="ent0006" id="entity_Monitoring Service"><rect fill="#F1F1F1" height="46.4883" rx="2.5" ry="2.5" style="stroke:#181818;stroke-width:0.5;" width="166.1846" x="200.92" y="219.97"/><rect fill="#F1F1F1" height="10" style="stroke:#181818;stroke-width:0.5;" width="15" x="347.1046" y="224.97"/><rect fill="#F1F1F1" height="2" style="stroke:#181818;stroke-width:0.5;" width="4" x="345.1046" y="226.97"/><rect fill="#F1F1F1" height="2" style="stroke:#181818;stroke-width:0.5;" width="4" x="345.1046" y="230.97"/><text fill="#000000" font-family="sans-serif" font-size="14" lengthAdjust="spacing" textLength="126.1846" x="215.92" y="253.5052">Monitoring Service</text></g><!--link Client to Dispatcher--><g class="link" data-entity-1="Client" data-entity-2="Dispatcher" data-source-line="10" data-uid="lnk7" id="link_Client_Dispatcher"><path d="M99.01,53.87 C99.01,71.52 99.01,89.53 99.01,107.16" fill="none" id="Client-to-Dispatcher" style="stroke:#181818;stroke-width:1;"/><polygon fill="#181818" points="99.01,113.16,103.01,104.16,99.01,108.16,95.01,104.16,99.01,113.16" style="stroke:#181818;stroke-width:1;"/></g><!--link Client to Dispatcher--><g class="link" data-entity-1="Client" data-entity-2="Dispatcher" data-source-line="11" data-uid="lnk8" id="link_Client_Dispatcher"><path d="M79.13,53.87 C79.13,71.52 79.13,89.53 79.13,107.16" fill="none" id="Client-to-Dispatcher-1" style="stroke:#181818;stroke-width:1;"/><polygon fill="#181818" points="79.13,113.16,83.13,104.16,79.13,108.16,75.13,104.16,79.13,113.16" style="stroke:#181818;stroke-width:1;"/></g><!--link Dispatcher to Client--><g class="link" data-entity-1="Dispatcher" data-entity-2="Client" data-source-line="12" data-uid="lnk9" id="link_Dispatcher_Client"><path d="M118.88,113.1 C118.88,95.45 118.88,77.44 118.88,59.81" fill="none" id="Dispatcher-to-Client" style="stroke:#181818;stroke-width:1;"/><polygon fill="#181818" points="118.88,53.81,114.88,62.81,118.88,58.81,122.88,62.81,118.88,53.81" style="stroke:#181818;stroke-width:1;"/></g><!--link Worker to Dispatcher--><g class="link" data-entity-1="Worker" data-entity-2="Dispatcher" data-source-line="14" data-uid="lnk10" id="link_Worker_Dispatcher"><path d="M77.54,219.58 C77.54,201.94 77.54,183.93 77.54,166.3" fill="none" id="Worker-to-Dispatcher" style="stroke:#181818;stroke-width:1;"/><polygon fill="#181818" points="77.54,160.3,73.54,169.3,77.54,165.3,81.54,169.3,77.54,160.3" style="stroke:#181818;stroke-width:1;"/></g><!--link Dispatcher to Worker--><g class="link" data-entity-1="Dispatcher" data-entity-2="Worker" data-source-line="15" data-uid="lnk11" id="link_Dispatcher_Worker"><path d="M60.06,160.36 C60.06,178.01 60.06,196.02 60.06,213.65" fill="none" id="Dispatcher-to-Worker" style="stroke:#181818;stroke-width:1;"/><polygon fill="#181818" points="60.06,219.65,64.06,210.65,60.06,214.65,56.06,210.65,60.06,219.65" style="stroke:#181818;stroke-width:1;"/></g><!--link Worker to Name Service--><g class="link" data-entity-1="Worker" data-entity-2="Name Service" data-source-line="17" data-uid="lnk12" id="link_Worker_Name Service"><path d="M64.34,266.85 C64.34,284.5 64.34,302.51 64.34,320.14" fill="none" id="Worker-to-Name Service" style="stroke:#181818;stroke-width:1;"/><polygon fill="#181818" points="64.34,326.14,68.34,317.14,64.34,321.14,60.34,317.14,64.34,326.14" style="stroke:#181818;stroke-width:1;"/></g><!--link Dispatcher to Name Service--><g class="link" data-entity-1="Dispatcher" data-entity-2="Name Service" data-source-line="19" data-uid="lnk13" id="link_Dispatcher_Name Service"><path d="M115.15,160.34 C115.15,201.27 115.15,278.98 115.15,319.99" fill="none" id="Dispatcher-to-Name Service" style="stroke:#181818;stroke-width:1;"/><polygon fill="#181818" points="115.15,325.99,119.15,316.99,115.15,320.99,111.15,316.99,115.15,325.99" style="stroke:#181818;stroke-width:1;"/></g><!--link Dispatcher to Monitoring Service--><g class="link" data-entity-1="Dispatcher" data-entity-2="Monitoring Service" data-source-line="21" data-uid="lnk14" id="link_Dispatcher_Monitoring Service"><path d="M135.29,160.3 C135.29,191.6 135.29,242.95 135.29,242.95 C135.29,242.95 160.62,242.95 194.52,242.95" fill="none" id="Dispatcher-to-Monitoring Service" style="stroke:#181818;stroke-width:1;"/><polygon fill="#181818" points="200.52,242.95,191.52,238.95,195.52,242.95,191.52,246.95,200.52,242.95" style="stroke:#181818;stroke-width:1;"/></g><!--SRC=[YtREoKpDAudbYdR9B2v8B4dEI2q2SiBpYxB13B_4t5I5uDIYiipaL23NDpylioI_A3Cl7I78LPoTcLUGM9IOgv2JcPTQKbcGgb2GdrC9uc2JooygoSZdueg6sgoWgskdW6exRXaa3aGMvdouaudH1FCTcYPKlsBHHr01bk010000]--></g></svg>