<svg xmlns="http://www.w3.org/2000/svg" xmlns:xlink="http://www.w3.org/1999/xlink" contentStyleType="text/css" data-diagram-type="SEQUENCE" height="438px" preserveAspectRatio="none" style="width:556px;height:438px;background:#FFFFFF;" version="1.1" viewBox="0 0 556 438" width="556px" zoomAndPan="magnify"><defs/><g><g><title>Dispatcher</title><rect fill="#FFBBBB" height="256.1738" style="stroke:#181818;stroke-width:1;" width="10" x="196.7212" y="111.1094"/></g><g><title>Worker</title><rect fill="#A7D1AA" height="37" style="stroke:#181818;stroke-width:1;" width="10" x="508.1787" y="228.3516"/></g><g><title>Client</title><rect fill="#000000" fill-opacity="0.00000" height="366.1055" width="8" x="27.7524" y="36.4883"/><line style="stroke:#181818;stroke-width:0.5;stroke-dasharray:5.0,5.0;" x1="31" x2="31" y1="36.4883" y2="402.5938"/></g><g><title>Dispatcher</title><rect fill="#000000" fill-opacity="0.00000" height="366.1055" width="8" x="197.7212" y="36.4883"/><line style="stroke:#181818;stroke-width:0.5;stroke-dasharray:5.0,5.0;" x1="201.3027" x2="201.3027" y1="36.4883" y2="402.5938"/></g><g><title>Name Service</title><rect fill="#000000" fill-opacity="0.00000" height="366.1055" width="8" x="415.8179" y="36.4883"/><line style="stroke:#181818;stroke-width:0.5;stroke-dasharray:5.0,5.0;" x1="419.4648" x2="419.4648" y1="36.4883" y2="402.5938"/></g><g><title>Worker</title><rect fill="#000000" fill-opacity="0.00000" height="366.1055" width="8" x="509.1787" y="36.4883"/><line style="stroke:#181818;stroke-width:0.5;stroke-dasharray:5.0,5.0;" x1="513.1709" x2="513.1709" y1="36.4883" y2="402.5938"/></g><g class="participant participant-head" data-participant="Client"><rect fill="#E2E2F0" height="30.4883" rx="2.5" ry="2.5" style="stroke:#181818;stroke-width:0.5;" width="53.5049" x="5" y="5"/><text fill="#000000" font-family="sans-serif" font-size="14" lengthAdjust="spacing" textLength="39.5049" x="12" y="25.5352">Client</text></g><g class="participant participant-tail" data-participant="Client"><rect fill="#E2E2F0" height="30.4883" rx="2.5" ry="2.5" style="stroke:#181818;stroke-width:0.5;" width="53.5049" x="5" y="401.5938"/><text fill="#000000" font-family="sans-serif" font-size="14" lengthAdjust="spacing" textLength="39.5049" x="12" y="422.1289">Client</text></g><g class="participant participant-head" data-participant="Dispatcher"><rect fill="#E2E2F0" height="30.4883" rx="2.5" ry="2.5" style="stroke:#181818;stroke-width:0.5;" width="86.8369" x="158.3027" y="5"/><text fill="#000000" font-family="sans-serif" font-size="14" lengthAdjust="spacing" textLength="72.8369" x="165.3027" y="25.5352">Dispatcher</text></g><g class="participant participant-tail" data-participant="Dispatcher"><rect fill="#E2E2F0" height="30.4883" rx="2.5" ry="2.5" style="stroke:#181818;stroke-width:0.5;" width="86.8369" x="158.3027" y="401.5938"/><text fill="#000000" font-family="sans-serif" font-size="14" lengthAdjust="spacing" textLength="72.8369" x="165.3027" y="422.1289">Dispatcher</text></g><g class="participant participant-head" data-participant="Name Service"><rect fill="#E2E2F0" height="30.4883" rx="2.5" ry="2.5" style="stroke:#181818;stroke-width:0.5;" width="104.7061" x="367.4648" y="5"/><text fill="#000000" font-family="sans-serif" font-size="14" lengthAdjust="spacing" textLength="90.7061" x="374.4648" y="25.5352">Name Service</text></g><g class="participant participant-tail" data-participant="Name Service"><rect fill="#E2E2F0" height="30.4883" rx="2.5" ry="2.5" style="stroke:#181818;stroke-width:0.5;" width="104.7061" x="367.4648" y="401.5938"/><text fill="#000000" font-family="sans-serif" font-size="14" lengthAdjust="spacing" textLength="90.7061" x="374.4648" y="422.1289">Name Service</text></g><g class="participant participant-head" data-participant="Worker"><rect fill="#E2E2F0" height="30.4883" rx="2.5" ry="2.5" style="stroke:#181818;stroke-width:0.5;" width="62.0156" x="482.1709" y="5"/><text fill="#000000" font-family="sans-serif" font-size="14" lengthAdjust="spacing" textLength="48.0156" x="489.1709" y="25.5352">Worker</text></g><g class="participant participant-tail" data-participant="Worker"><rect fill="#E2E2F0" height="30.4883" rx="2.5" ry="2.5" style="stroke:#181818;stroke-width:0.5;" width="62.0156" x="482.1709" y="401.5938"/><text fill="#000000" font-family="sans-serif" font-size="14" lengthAdjust="spacing" textLength="48.0156" x="489.1709" y="422.1289">Worker</text></g><g><title>Dispatcher</title><rect fill="#FFBBBB" height="256.1738" style="stroke:#181818;stroke-width:1;" width="10" x="196.7212" y="111.1094"/></g><g><title>Worker</title><rect fill="#A7D1AA" height="37" style="stroke:#181818;stroke-width:1;" width="10" x="508.1787" y="228.3516"/></g><rect fill="#EEEEEE" height="3" style="stroke:#EEEEEE;stroke-width:1;" width="549.1865" x="0" y="67.1436"/><line style="stroke:#000000;stroke-width:1;" x1="0" x2="549.1865" y1="67.1436" y2="67.1436"/><line style="stroke:#000000;stroke-width:1;" x1="0" x2="549.1865" y1="70.1436" y2="70.1436"/><rect fill="#EEEEEE" height="23.3105" style="stroke:#000000;stroke-width:2;" width="86.9536" x="231.1165" y="56.4883"/><text fill="#000000" font-family="sans-serif" font-size="13" font-weight="bold" lengthAdjust="spacing" textLength="68.6689" x="237.1165" y="73.0566">Send Task</text><g class="message" data-participant-1="Client" data-participant-2="Dispatcher"><polygon fill="#FF0000" points="184.7212,107.1094,194.7212,111.1094,184.7212,115.1094,188.7212,111.1094" style="stroke:#FF0000;stroke-width:1;"/><line style="stroke:#FF0000;stroke-width:1;" x1="31.7524" x2="190.7212" y1="111.1094" y2="111.1094"/><text fill="#000000" font-family="sans-serif" font-size="13" lengthAdjust="spacing" textLength="141.4131" x="38.7524" y="106.3672">send task and payload</text></g><g class="message" data-participant-1="Dispatcher" data-participant-2="Client"><polygon fill="#FF0000" points="42.7524,119.1094,32.7524,123.1094,42.7524,127.1094,38.7524,123.1094" style="stroke:#FF0000;stroke-width:1;"/><line style="stroke:#FF0000;stroke-width:1;" x1="36.7524" x2="195.7212" y1="123.1094" y2="123.1094"/><text fill="#000000" font-family="sans-serif" font-size="13" lengthAdjust="spacing" textLength="128.8574" x="48.7524" y="136.6777">respond with task id</text></g><g class="message" data-participant-1="Dispatcher" data-participant-2="Name Service"><polygon fill="#0000FF" points="407.8179,165.7305,417.8179,169.7305,407.8179,173.7305,411.8179,169.7305" style="stroke:#0000FF;stroke-width:1;"/><line style="stroke:#0000FF;stroke-width:1;" x1="206.7212" x2="413.8179" y1="169.7305" y2="169.7305"/><text fill="#000000" font-family="sans-serif" font-size="13" lengthAdjust="spacing" textLength="91.1714" x="213.7212" y="164.9883">lookup worker</text></g><g class="message" data-participant-1="Name Service" data-participant-2="Dispatcher"><polygon fill="#0000FF" points="217.7212,177.7305,207.7212,181.7305,217.7212,185.7305,213.7212,181.7305" style="stroke:#0000FF;stroke-width:1;"/><line style="stroke:#0000FF;stroke-width:1;" x1="211.7212" x2="418.8179" y1="181.7305" y2="181.7305"/><text fill="#000000" font-family="sans-serif" font-size="13" lengthAdjust="spacing" textLength="189.0967" x="223.7212" y="195.2988">respond with available worker</text></g><g class="message" data-participant-1="Dispatcher" data-participant-2="Worker"><polygon fill="#008000" points="496.1787,224.3516,506.1787,228.3516,496.1787,232.3516,500.1787,228.3516" style="stroke:#008000;stroke-width:1;"/><line style="stroke:#008000;stroke-width:1;" x1="206.7212" x2="502.1787" y1="228.3516" y2="228.3516"/><text fill="#000000" font-family="sans-serif" font-size="13" lengthAdjust="spacing" textLength="83.897" x="213.7212" y="223.6094">dispatch task</text></g><g class="message" data-participant-1="Worker" data-participant-2="Dispatcher"><polygon fill="#008000" points="217.7212,261.3516,207.7212,265.3516,217.7212,269.3516,213.7212,265.3516" style="stroke:#008000;stroke-width:1;"/><line style="stroke:#008000;stroke-width:1;" x1="211.7212" x2="512.1787" y1="265.3516" y2="265.3516"/><text fill="#000000" font-family="sans-serif" font-size="13" lengthAdjust="spacing" textLength="70.1099" x="223.7212" y="278.9199">send result</text></g><rect fill="#EEEEEE" height="3" style="stroke:#EEEEEE;stroke-width:1;" width="549.1865" x="0" y="311.3174"/><line style="stroke:#000000;stroke-width:1;" x1="0" x2="549.1865" y1="311.3174" y2="311.3174"/><line style="stroke:#000000;stroke-width:1;" x1="0" x2="549.1865" y1="314.3174" y2="314.3174"/><rect fill="#EEEEEE" height="23.3105" style="stroke:#000000;stroke-width:2;" width="130.0859" x="209.5503" y="300.6621"/><text fill="#000000" font-family="sans-serif" font-size="13" font-weight="bold" lengthAdjust="spacing" textLength="111.8013" x="215.5503" y="317.2305">Fetch Responses</text><g class="message" data-participant-1="Client" data-participant-2="Dispatcher"><polygon fill="#EE82EE" points="184.7212,351.2832,194.7212,355.2832,184.7212,359.2832,188.7212,355.2832" style="stroke:#EE82EE;stroke-width:1;"/><line style="stroke:#EE82EE;stroke-width:1;" x1="31.7524" x2="190.7212" y1="355.2832" y2="355.2832"/><text fill="#000000" font-family="sans-serif" font-size="13" lengthAdjust="spacing" textLength="140.9688" x="38.7524" y="350.541">get result from task id</text></g><g class="message" data-participant-1="Dispatcher" data-participant-2="Client"><polygon fill="#EE82EE" points="42.7524,363.2832,32.7524,367.2832,42.7524,371.2832,38.7524,367.2832" style="stroke:#EE82EE;stroke-width:1;"/><line style="stroke:#EE82EE;stroke-width:1;" x1="36.7524" x2="200.7212" y1="367.2832" y2="367.2832"/><text fill="#000000" font-family="sans-serif" font-size="13" lengthAdjust="spacing" textLength="122.4146" x="48.7524" y="380.8516">respond with result</text></g><!--SRC=[VL6xQiCm5Dtr5PTazj2f4EA2qv2j7Tf2XzBXnhfnX1L9bMIRWZ- -yYj-95IJuJnzha7hHIeCAW_DMprBGSglc5a2U-4C-lHCzWxuYXU2TxAbIEaE_AbjtkYOouKAA5x0qKz1AgKNSWupIgJ854Ww-GddZPpHoWsS7KbT9TRg2hmjYB4u3fcAmmUw7EAOTTqX-bfRujzFC5RUXBn0z0qHmuV1NwcHCqozAD7JX0hhms4Ntk2sxToYcPjjct6eX3zthe8pDZ497Owoe51Yliq6fDPvOQ1g9vbAjhqakf7Cqh148V4ewOv5ICqiaGgntUGRu3tQjXp_juDXdJpk7vA4rNMzgDBvH5UVThzGf92USLhujASuK1CptCpD3r8ABSalRfAHxotXPFNbEkIuV2_xP_pRIYFr3m00]--></g></svg>